<svg width="246px" height="350px" viewBox="126 75 246 350" version="1.1" xmlns="http://www.w3.org/2000/svg" xmlns:xlink="http://www.w3.org/1999/xlink">
    <defs></defs>
    <g id="logo" stroke="none" stroke-width="1" fill="none" fill-rule="evenodd" transform="translate(126.000000, 75.000000)">
        <g id="Group">
            <path d="M182.4,68.6 C168.8,75.3 150.6,87.9 134.1,111.3 C127.3,106.6 122.6,104.3 121.9,103.9 C119.3,102.6 116.3,102.5 113.6,103.6 C112.9,103.9 108.4,105.7 101.8,109.6 C88.7,87.8 75.3,74.4 59.9,62.9 C76.2,28.7 107.3,7.2 119.1,0 C132,7.6 168.1,31.4 182.4,68.6 Z" id="Shape" fill="#359168"></path>
            <path d="M229.1,158.1 C227.6,158.7 226.1,159.3 224.6,159.9 C212.1,165.2 197.1,173.6 182.6,187.2 C173.4,148.7 151.6,123.6 133.3,108.5 C152,78.2 174,67.5 182.9,64.3 C194,72.9 226.4,102.6 229.1,158.1 L229.1,158.1 Z" id="Shape" fill="#3AA572"></path>
            <path d="M61.1,55.7 C63.9,56.5 67.2,56.7 74.1,60.5 C81,64.3 100.6,82.7 112.8,102.8 C95.3,117.3 74.7,141.4 65.9,178.7 C51.5,166.1 36.9,158.2 24.7,153.3 C21.8,152.1 19,151.1 16.3,150.2 C18.1,94.3 50.4,64.2 61.1,55.7 L61.1,55.7 Z" id="Shape" fill="#3AA572"></path>
            <path d="M85.2,214.2 C78.1,201 70.4,190.1 62.2,180.9 C62.3,180.2 62.3,179.6 62.3,179 C68.2,121.4 106.8,94.5 119.7,87.1 C133.3,94.3 184.2,126.1 184.2,177.8 C184.3,181 184.3,183.3 184.3,183.3 C176.9,192.8 171.3,202.3 165.3,215.5 C160.1,226.7 156.3,238.2 153.7,249.7 C140.5,241.6 130.5,237.3 129.5,236.9 C126.8,235.7 123.6,235.8 121,237.2 C120,237.6 111.1,242 99.3,250.1 C96.4,237.8 92.2,227.3 85.2,214.2 Z" id="Shape" fill="#33996C"></path>
            <path d="M113.1,303.1 C117.6,300.4 122,297.6 126.3,294.7 C131.1,297.8 135.9,300.7 140.9,303.4 C138.7,303.5 136.6,303.7 134.4,303.8 C134.8,314.9 133.6,329 128.2,344.7 C127.1,347.8 124.3,349.7 121.2,349.7 C120.4,349.7 119.6,349.6 118.8,349.3 C114.9,348 112.9,343.8 114.2,339.9 C119,325.8 120,313.3 119.6,303.6 C117.4,303.5 115.3,303.3 113.1,303.1 L113.1,303.1 Z" id="Shape" fill="#35495E"></path>
            <path d="M236.9,227.4 C220.8,229.1 194.8,233.7 168.6,245.7 C161.5,235.7 152.5,227.3 143.9,220.7 C145.4,211.1 148.3,201.8 152.6,192.3 C163.7,168.1 180.5,151 202.4,141.6 C214,136.6 224.1,135.2 229.2,134.7 C236.3,144.5 257.4,179.5 236.9,227.4 L236.9,227.4 Z" id="Shape" fill="#41B883"></path>
            <path d="M3.1,161.3 C6.1,149 11.1,140.1 13.8,135.8 C18.9,135.9 29,136.8 40.9,141 C63.4,149.1 81.2,165.1 93.7,188.6 C100.3,200.9 102.5,208.8 104.1,218.3 C95.6,225.6 86.7,234.7 79.9,245.6 C54.4,235.8 29.4,232.6 13.2,231.7 L13.2,231.7 C0.8,208.2 -2.7,184.5 3.1,161.3 L3.1,161.3 Z" id="Shape" fill="#41B883"></path>
            <path d="M119.3,319.6 C78.2,318.7 47.5,302.4 28.1,271 C17.8,254.3 13.4,237.3 11.7,228.1 C23.9,228.3 50.4,230.1 76.4,241.3 C79.5,242.6 83,241.4 84.6,238.4 C95,218.4 116.8,204.8 124.3,200.5 C132.1,204.3 154.6,216.5 166.2,235.9 C167.9,238.8 171.6,239.8 174.5,238.3 C199.7,225.7 226,222.2 238.3,221.2 C237.1,230.6 233.6,248.5 223.9,266.2 C205.8,299.1 172.5,317.8 129.9,320.2" id="Shape" fill="#35495E"></path>
        </g>
    </g>
</svg>
