<svg id="Capa_1" data-name="Capa 1" xmlns="http://www.w3.org/2000/svg" xmlns:xlink="http://www.w3.org/1999/xlink" viewBox="0 0 1024 1024"><defs><style>.cls-1{fill:url(#linear-gradient);}.cls-2{fill:#424242;}.cls-3{fill:#3299bb;}.cls-4{fill:#f90;}</style><linearGradient id="linear-gradient" x1="363.61" y1="553.05" x2="363.65" y2="553.17" gradientUnits="userSpaceOnUse"><stop offset="0" stop-color="#a30061"/><stop offset="1" stop-color="#eb0b8c"/></linearGradient></defs><title>Mesa de trabajo 1</title><path class="cls-1" d="M363.58,553.21l.11-.19Z"/><path class="cls-2" d="M437.2,775.43c-7.83-40.91-19.81-107.32-26.39-147.33C400.23,565.19,391,504,382.93,445c-1.44-11-5-19.2-10-24.33-6.83-7-13.4-14-20.11-20.87.51.55,1,1.27,1.46,1.88-10.64-13.23-29.5-10.57-49.2,9.7-43.2,44.6-84.62,90-123.67,135.93-23.79,28.21-60.93,74.06-82.13,101.89-32.82,43-62.84,85.15-89.44,126.37-8.16,12.31-11,25.5-9.37,36.82,0,.79.32,1.56.36,2.27a36.14,36.14,0,0,0,5.7,13.23c-.31-.47-.79-.81-1.08-1.3,4.67,7.45,9.45,15.1,14.33,22.67a34.09,34.09,0,0,0,14,12.32c37,18.19,77.32,36.8,120.92,55.41,28.63,12.29,77.84,32.31,109.36,44.48,52.17,20.39,106.89,40.24,163.51,59.68,36.22,12.4,58.62-10,49.81-50Q456,874.2,437.2,775.43ZM288.09,533.79a4.9,4.9,0,0,0-.54,0A4.9,4.9,0,0,1,288.09,533.79Zm-3.79.74-.8.26Zm-4,1.81c-.31.18-.61.33-.92.52C279.65,536.67,280,536.52,280.26,536.34Zm-4.34,3c-.28.23-.56.41-.83.66C275.36,539.75,275.64,539.57,275.92,539.34ZM87,771.4a35.34,35.34,0,0,1,5.87-11.47A36.56,36.56,0,0,0,87,771.4Zm-1,5.32a24.94,24.94,0,0,1,.53-2.9C86.25,774.79,86,775.76,85.91,776.72ZM358.52,408.8a52.56,52.56,0,0,1,3.78,14.67A52.7,52.7,0,0,0,358.52,408.8Zm-.22-.41a30.89,30.89,0,0,0-3.65-6.2A30.43,30.43,0,0,1,358.3,408.39Zm-8.19,437.52c4.67,23.24-7.75,36.55-27.39,29.63q-46.14-16.1-89.65-32.32c-17.76-6.56-45.95-17.15-62.59-23.68-23-8.89-45-17.59-66.25-26.25a37.28,37.28,0,0,1,5.33-9.94c19-25,38.89-50.43,59.67-76.09,13.44-16.33,35.78-43.22,50-59.73,23.06-26.89,46.67-53.78,71.13-80.54,4.2-4.59,8.34-7.59,12.24-9.16q6.14,46,13.33,93.16c3.47,22.78,9.6,60.27,13.65,83.35C336,771.42,342.9,808.7,350.11,845.91Zm-58.6-311.86h0ZM8.76,830.6a30.65,30.65,0,0,0,3.07,3.28A30.65,30.65,0,0,1,8.76,830.6Z"/><path class="cls-3" d="M1021.55,430c-15.47-57.88-31.66-113.4-48.46-166-10.12-31.66-26.91-80.68-37.43-109-15.8-43-31.94-82.57-48-118.52a35.26,35.26,0,0,0-12.76-15.38c-7.2-5-14.35-9.9-21.54-14.66.55.38,1,1,1.51,1.35-11.91-8.89-29.37-10-45.2-1.12-37,20.68-75.57,44.59-115.38,71.8-26.1,17.82-69.68,49.31-96.7,70.24-41.9,32.19-83.94,67.07-126.15,104-2.75,2.43-5.53,4.82-8.37,7.39C449.18,272.39,443,285,444.12,295.45v.71a21.31,21.31,0,0,0,7.4,13.27c-.2-.18-.46-.31-.64-.49q10.58,9.72,21.17,19.9c4.76,4.46,11.81,7.91,21.18,10C549.4,350.89,607,364.73,665.4,380.23c37.06,9.89,97.83,26.89,135,38.1q89.16,26.78,175.21,56.94C1010.83,487.57,1031.36,467.11,1021.55,430ZM816,78.43a20.54,20.54,0,0,0-6.32-.8A20,20,0,0,1,816,78.43ZM591.14,235.77a42.66,42.66,0,0,0-5.06,5A39.82,39.82,0,0,1,591.14,235.77Zm-10,14a16.93,16.93,0,0,1,.9-2.62A16.93,16.93,0,0,0,581.09,249.82Zm1.74-4.41a26.74,26.74,0,0,1,2.58-3.78A28.24,28.24,0,0,0,582.83,245.41Zm-2.16,7.47s-.11-.07-.14-.12c0-.22.1-.44.13-.66A6.77,6.77,0,0,0,580.67,252.88Zm57.72,96q-42.24-10.82-83.68-20.3C582.34,335,610.26,341.68,638.39,348.86Zm306-121.67c-2.34-7-4.81-14.4-7.39-21.95,4.49,13.21,8.8,26,12.32,36.72C947.78,237.37,946.1,232.36,944.41,227.19Zm-8.29-24.57c-.17-.52-.36-1.05-.54-1.57C935.76,201.57,936,202.09,936.12,202.62ZM861,13.69a38,38,0,0,0-2.77-2.89A36.19,36.19,0,0,1,861,13.69Zm-9.1,143.08c5.45,16.68,14.36,44.7,19.72,62.48,9,29.15,17.78,59.43,26.57,90.69,5.68,19.79-6.93,30.89-27.66,24.33-33.27-10.46-66.83-20.51-100.44-29.93C749,298.49,714.8,289.25,694,283.93q-44-11.07-87.25-20.79a35.71,35.71,0,0,1,7-7.81q39.14-33,77.68-63.22c15.71-12.26,40.93-31.53,56.29-42.91,23.72-17.66,47-34.17,69.82-49.81a27.8,27.8,0,0,1,13-4.68c6,16.42,11.93,33.34,17.74,51C849.41,149.37,850.64,153.12,851.94,156.77ZM795,82.52a30.59,30.59,0,0,1,6.84-3.38A31.93,31.93,0,0,0,795,82.52Zm8-3.72a24.61,24.61,0,0,1,6.16-1.14A25.07,25.07,0,0,0,802.94,78.8Zm13.94,0a19.33,19.33,0,0,1,4.38,2.2A19.33,19.33,0,0,0,816.88,78.78ZM544.94,326.27c2.28.52,4.61,1.09,6.92,1.62q-42-9.63-83-17.95C493.83,315,519.32,320.55,544.94,326.27Zm-89.82-14.12c-.35-.22-.65-.48-1-.71C454.46,311.67,454.77,311.92,455.12,312.15Zm4.57,2.49-.32-.17Z"/><path class="cls-4" d="M995.73,548.91a35.6,35.6,0,0,0-8.81-16.22c-8-8.71-16.21-17.22-24.4-25.8.46.48.72,1,1.15,1.54-5.51-6.38-13.5-11.75-24.18-15.37Q852,463.54,761.94,437.12c-37.45-11-98.52-27.78-135.51-37.4-6.8-1.79-13.52-3.44-20.41-5.18-51.11-13-101.36-24.87-150.31-35.23-33.54-7.29-56.87,15.26-52.21,50.08q12,87,27.48,180.61c6.61,39.64,18.35,105.77,25.86,146.67,12.38,65.82,25.57,131.82,39.52,197.05a36.06,36.06,0,0,0,1.14,4.58c3.07,11.25,8,19.77,14.11,25.41-.6-.55-1.25-1-1.82-1.54,8.36,8.78,16.8,17.48,25.18,26.28,14,14.38,35,13,55.07-6.73q71.37-69.84,144.26-142.45C764.76,809,814,759.5,843.88,729.64c46.94-47.58,92.62-94.09,136.57-139.17C993.91,576.7,998.72,561.84,995.73,548.91Zm-27.09-33.3a39.92,39.92,0,0,0-2.88-4.39A38.52,38.52,0,0,1,968.64,515.61ZM554.78,799.2c.07.39.19.71.26,1.07a.94.94,0,0,1,0-.09A3.41,3.41,0,0,1,554.78,799.2Zm22.51,12.94q-10.39-50.91-20.21-101.53c-4.78-24-12.14-62.66-16.59-86.21-7.07-37.32-13.68-74.2-20.26-110.43-4-22.36,10-35.77,31.08-30.17q51.32,13.57,103.5,28.44c22,6.14,58,16.64,79.89,23.13q47.31,14.18,94.38,29.06a39,39,0,0,1-7.88,11c-16.19,15.91-32.54,32.1-49,48.23-11.07,11-22.13,21.83-33.33,32.93C721.56,673.82,693,702,675.53,719.45c-27.92,27.83-55.89,55.69-83.55,83.44C587,807.88,582,810.83,577.29,812.14ZM814.7,541.76a35.88,35.88,0,0,1,6.85,2.86A35.68,35.68,0,0,0,814.7,541.76Zm8.84,4a26.92,26.92,0,0,1,4.25,3.29A26.35,26.35,0,0,0,823.54,545.76Zm-196.2-66.91,8.59,2.38Zm10.5,2.91,2.75.76Zm152.32,238.1c-27.92,28-61.4,61.47-84.23,84.13C728.74,781.29,762.19,747.81,790.16,719.86ZM689.79,496.52c6.06,1.74,11.88,3.39,16.76,4.88C701.58,499.93,695.85,498.27,689.79,496.52ZM518.34,968.44a31.48,31.48,0,0,1-5.65-3.81A31.31,31.31,0,0,0,518.34,968.44Zm10.32,3.2c-.79-.08-1.54-.26-2.31-.4C527.11,971.38,527.87,971.55,528.66,971.64Zm-5.54-1.19a27.9,27.9,0,0,1-2.82-1A24.93,24.93,0,0,0,523.12,970.45Zm11.35,1.21c.47,0,.95-.15,1.43-.22C535.42,971.51,534.94,971.61,534.47,971.66Zm23.37-10.27c-.48.39-1,.73-1.44,1.08C556.88,962.12,557.36,961.78,557.84,961.39Zm-8,5.35c-.09,0-.17.1-.26.15C549.65,966.84,549.73,966.78,549.82,966.74Zm-7.13,3.12c-.45.15-.9.27-1.34.39C541.79,970.13,542.24,970,542.69,969.86Z"/></svg>